<?xml version="1.0"?>
<svg xmlns="http://www.w3.org/2000/svg" id="Layer_1" data-name="Layer 1" viewBox="0 0 64 64"><title>Icons8 RSL Colored Part 5</title><path d="M17.32,4.94H46.07a3,3,0,0,1,3,3v48a3,3,0,0,1-3,3h-38a3,3,0,0,1-3-3V17.18A3,3,0,0,1,6,15.06l9.24-9.24A3,3,0,0,1,17.32,4.94Z" style="fill:#faefde;"/><polygon points="5.07 59 4.93 49.54 48.41 6.06 49.07 29 19.07 59 5.07 59" style="fill:#fff7f0;"/><polygon points="4.93 39.15 39.14 4.94 44.89 5.19 5.07 45 4.93 39.15" style="fill:#fff7f0;"/><polygon points="4.93 33.15 33.07 5 36.07 5 4.93 36.15 4.93 33.15" style="fill:#fff7f0;"/><polygon points="39.58 13 40.81 15.26 43.08 16.5 40.81 17.74 39.58 20 38.34 17.74 36.07 16.5 38.34 15.26 39.58 13" style="fill:#fff;"/><polygon points="24.49 11 25.35 12.56 26.91 13.42 25.35 14.27 24.49 15.84 23.64 14.27 22.07 13.42 23.64 12.56 24.49 11" style="fill:#fff;"/><polygon points="10.72 42 11.3 43.06 12.37 43.65 11.3 44.23 10.72 45.3 10.14 44.23 9.07 43.65 10.14 43.06 10.72 42" style="fill:#fff;"/><polygon points="17.07 5 17.07 17 5.07 17 17.07 5" style="fill:#bbdef9;"/><rect x="15.07" y="23" width="44" height="22" style="fill:#85cbf8;"/><path d="M9,52a1,1,0,0,0-1,1v2a1,1,0,0,0,2,0V53A1,1,0,0,0,9,52Z" style="fill:#8d6c9f;"/><path d="M14,52a1,1,0,0,0-1,1v2a1,1,0,0,0,2,0V53A1,1,0,0,0,14,52Z" style="fill:#8d6c9f;"/><path d="M19,56a1,1,0,0,0,1-1V53a1,1,0,0,0-2,0v2A1,1,0,0,0,19,56Z" style="fill:#8d6c9f;"/><path d="M24,56a1,1,0,0,0,1-1V53a1,1,0,0,0-2,0v2A1,1,0,0,0,24,56Z" style="fill:#8d6c9f;"/><path d="M29,56a1,1,0,0,0,1-1V53a1,1,0,0,0-2,0v2A1,1,0,0,0,29,56Z" style="fill:#8d6c9f;"/><path d="M34,56a1,1,0,0,0,1-1V53a1,1,0,0,0-2,0v2A1,1,0,0,0,34,56Z" style="fill:#8d6c9f;"/><path d="M39,56a1,1,0,0,0,1-1V53a1,1,0,0,0-2,0v2A1,1,0,0,0,39,56Z" style="fill:#8d6c9f;"/><path d="M44,56a1,1,0,0,0,1-1V53a1,1,0,0,0-2,0v2A1,1,0,0,0,44,56Z" style="fill:#8d6c9f;"/><path d="M58,22H50V7a3,3,0,0,0-3-3H17.66a5,5,0,0,0-3.54,1.46L5.46,14.12A5,5,0,0,0,4,17.66V57a3,3,0,0,0,3,3H47a3,3,0,0,0,3-3V46h8a2,2,0,0,0,2-2V24A2,2,0,0,0,58,22ZM15.54,6.88A3,3,0,0,1,16,6.5V15a1,1,0,0,1-1,1H6.5a2.86,2.86,0,0,1,.38-.46ZM48,57a1,1,0,0,1-1,1H7a1,1,0,0,1-1-1V18h9a3,3,0,0,0,3-3V6H47a1,1,0,0,1,1,1V22H16a2,2,0,0,0-2,2V44a2,2,0,0,0,2,2H48ZM58,44H16V24H58Z" style="fill:#8d6c9f;"/><path d="M27,30h2a1,1,0,0,1,1,1,1,1,0,0,0,2,0,3,3,0,0,0-3-3H27a3,3,0,0,0-3,3v6a3,3,0,0,0,3,3h2a3,3,0,0,0,3-3,1,1,0,0,0-2,0,1,1,0,0,1-1,1H27a1,1,0,0,1-1-1V31A1,1,0,0,1,27,30Z" style="fill:#fff;"/><path d="M46,28.71a1,1,0,1,0-1.92.57l3,10a1,1,0,0,0,1.92,0l3-10A1,1,0,0,0,50,28.71l-2,6.81Z" style="fill:#fff;"/><path d="M37,30h2a1,1,0,0,1,1,1,1,1,0,0,0,2,0,3,3,0,0,0-3-3H37a3,3,0,0,0-3,3v1a3,3,0,0,0,3,3h2a1,1,0,0,1,1,1v1a1,1,0,0,1-1,1H37a1,1,0,0,1-1-1,1,1,0,0,0-2,0,3,3,0,0,0,3,3h2a3,3,0,0,0,3-3V36a3,3,0,0,0-3-3H37a1,1,0,0,1-1-1V31A1,1,0,0,1,37,30Z" style="fill:#fff;"/></svg>
