<?xml version="1.0" encoding="iso-8859-1"?>
<!-- Generator: Adobe Illustrator 20.1.0, SVG Export Plug-In . SVG Version: 6.00 Build 0)  -->
<svg xmlns="http://www.w3.org/2000/svg" xmlns:xlink="http://www.w3.org/1999/xlink" version="1.1" id="&#1057;&#1083;&#1086;&#1081;_1" x="0px" y="0px" viewBox="0 0 64 64" style="enable-background:new 0 0 64 64;" xml:space="preserve">
<linearGradient id="SVGID_1__43610" gradientUnits="userSpaceOnUse" x1="37" y1="30.625" x2="37" y2="37.8793" spreadMethod="reflect">
	<stop offset="0" style="stop-color:#6DC7FF"/>
	<stop offset="1" style="stop-color:#E6ABFF"/>
</linearGradient>
<path style="fill:url(#SVGID_1__43610);" d="M46,36c0,0.552-0.448,1-1,1H29c-0.552,0-1-0.448-1-1v-4c0-0.552,0.448-1,1-1h16  c0.552,0,1,0.448,1,1V36z"/>
<linearGradient id="SVGID_2__43610" gradientUnits="userSpaceOnUse" x1="32" y1="6.1667" x2="32" y2="58.1071" spreadMethod="reflect">
	<stop offset="0" style="stop-color:#1A6DFF"/>
	<stop offset="1" style="stop-color:#C822FF"/>
</linearGradient>
<path style="fill:url(#SVGID_2__43610);" d="M53.399,13.867l-5-6.667C47.837,6.448,46.939,6,46,6H23c-1.654,0-3,1.346-3,3v5h-7  c-1.654,0-3,1.346-3,3v38c0,1.654,1.346,3,3,3h28c1.654,0,3-1.346,3-3v-5h7c1.654,0,3-1.346,3-3V15.667  C54,15.021,53.786,14.382,53.399,13.867z M48,10l3,4h-2c-0.552,0-1-0.448-1-1V10z M51,48H23c-0.552,0-1-0.448-1-1V23h-6v2h4v2h-4v2  h4v2h-4v2h4v2h-4v8h4v4c0,1.654,1.346,3,3,3h19v5c0,0.552-0.448,1-1,1H13c-0.552,0-1-0.448-1-1V17c0-0.552,0.448-1,1-1h7h1h1V9  c0-0.552,0.448-1,1-1h23v5c0,1.654,1.346,3,3,3h3v31C52,47.552,51.552,48,51,48z M20,41h-2v-4h2V41z"/>
<linearGradient id="SVGID_3__43610" gradientUnits="userSpaceOnUse" x1="37" y1="6.1667" x2="37" y2="58.1071" spreadMethod="reflect">
	<stop offset="0" style="stop-color:#1A6DFF"/>
	<stop offset="1" style="stop-color:#C822FF"/>
</linearGradient>
<rect x="28" y="19" style="fill:url(#SVGID_3__43610);" width="18" height="2"/>
<linearGradient id="SVGID_4__43610" gradientUnits="userSpaceOnUse" x1="37" y1="6.1667" x2="37" y2="58.1071" spreadMethod="reflect">
	<stop offset="0" style="stop-color:#1A6DFF"/>
	<stop offset="1" style="stop-color:#C822FF"/>
</linearGradient>
<rect x="28" y="23" style="fill:url(#SVGID_4__43610);" width="18" height="2"/>
<linearGradient id="SVGID_5__43610" gradientUnits="userSpaceOnUse" x1="37" y1="6.1667" x2="37" y2="58.1071" spreadMethod="reflect">
	<stop offset="0" style="stop-color:#1A6DFF"/>
	<stop offset="1" style="stop-color:#C822FF"/>
</linearGradient>
<rect x="28" y="27" style="fill:url(#SVGID_5__43610);" width="18" height="2"/>
</svg>
