<?xml version="1.0"?>
<svg xmlns="http://www.w3.org/2000/svg" id="Layer_1" data-name="Layer 1" viewBox="0 0 64 64"><title>Dusk Part 1</title><path d="M49,9V53H15v3a3,3,0,0,0,3,3H54a3,3,0,0,0,3-3V12a3,3,0,0,0-3-3Z" style="fill:#efd8be;"/><path d="M19.24,2.94H46a3,3,0,0,1,3,3v44a3,3,0,0,1-3,3H10a3,3,0,0,1-3-3V15.18a3,3,0,0,1,.88-2.12l9.24-9.24A3,3,0,0,1,19.24,2.94Z" style="fill:#faefde;"/><path d="M49,29V5.94a3,3,0,0,0,0-.49l-42,42v2.54a3,3,0,0,0,3,3H25.06Z" style="fill:#fff7f0;"/><polygon points="6.85 37.15 41.06 2.94 46.81 3.19 7 43 6.85 37.15" style="fill:#fff7f0;"/><polygon points="6.85 31.15 35 3 38 3 6.85 34.15 6.85 31.15" style="fill:#fff7f0;"/><polygon points="41.5 11 42.74 13.26 45 14.5 42.74 15.74 41.5 18 40.26 15.74 38 14.5 40.26 13.26 41.5 11" style="fill:#fff;"/><polygon points="26.42 9 27.27 10.56 28.84 11.42 27.27 12.27 26.42 13.84 25.56 12.27 24 11.42 25.56 10.56 26.42 9" style="fill:#fff;"/><polygon points="12.65 40 13.23 41.06 14.3 41.65 13.23 42.23 12.65 43.3 12.06 42.23 11 41.65 12.06 41.06 12.65 40" style="fill:#fff;"/><polygon points="19 3 19 15 7 15 19 3" style="fill:#bbdef9;"/><path d="M35,22h4a1,1,0,0,0,0-2H35a1,1,0,0,0,0,2Z" style="fill:#8d6c9f;"/><path d="M17,22H31a1,1,0,0,0,0-2H17a1,1,0,0,0,0,2Z" style="fill:#8d6c9f;"/><path d="M17,26H35a1,1,0,0,0,0-2H17a1,1,0,0,0,0,2Z" style="fill:#8d6c9f;"/><path d="M17,36H27a1,1,0,0,0,0-2H17a1,1,0,0,0,0,2Z" style="fill:#8d6c9f;"/><path d="M17,32H37a1,1,0,0,0,0-2H17a1,1,0,0,0,0,2Z" style="fill:#8d6c9f;"/><path d="M13,44a1,1,0,0,0-1,1v2a1,1,0,0,0,2,0V45A1,1,0,0,0,13,44Z" style="fill:#8d6c9f;"/><path d="M18,44a1,1,0,0,0-1,1v2a1,1,0,0,0,2,0V45A1,1,0,0,0,18,44Z" style="fill:#8d6c9f;"/><path d="M23,44a1,1,0,0,0-1,1v2a1,1,0,0,0,2,0V45A1,1,0,0,0,23,44Z" style="fill:#8d6c9f;"/><path d="M28,44a1,1,0,0,0-1,1v2a1,1,0,0,0,2,0V45A1,1,0,0,0,28,44Z" style="fill:#8d6c9f;"/><path d="M33,44a1,1,0,0,0-1,1v2a1,1,0,0,0,2,0V45A1,1,0,0,0,33,44Z" style="fill:#8d6c9f;"/><path d="M38,44a1,1,0,0,0-1,1v2a1,1,0,0,0,2,0V45A1,1,0,0,0,38,44Z" style="fill:#8d6c9f;"/><path d="M43,48a1,1,0,0,0,1-1V45a1,1,0,0,0-2,0v2A1,1,0,0,0,43,48Z" style="fill:#8d6c9f;"/><path d="M55,8H50V5a3,3,0,0,0-3-3H19.66a5,5,0,0,0-3.54,1.46L7.46,12.12A5,5,0,0,0,6,15.66V51a3,3,0,0,0,3,3h5v3a3,3,0,0,0,3,3H55a3,3,0,0,0,3-3V11A3,3,0,0,0,55,8ZM17.54,4.88A3,3,0,0,1,18,4.5V13a1,1,0,0,1-1,1H8.5a3,3,0,0,1,.38-.46ZM8,51V48a1,1,0,0,0,1-1V45a1,1,0,0,0-1-1V16h9a3,3,0,0,0,3-3V4H47a1,1,0,0,1,1,1V44a1,1,0,0,0-1,1v2a1,1,0,0,0,1,1v3a1,1,0,0,1-1,1H9A1,1,0,0,1,8,51Zm48,6a1,1,0,0,1-1,1H17a1,1,0,0,1-1-1V54H47a3,3,0,0,0,3-3V10h5a1,1,0,0,1,1,1Z" style="fill:#8d6c9f;"/></svg>
